<svg fill="none" height="51" viewBox="0 0 155 51" width="155" xmlns="http://www.w3.org/2000/svg"><rect fill="#00ac66" height="51" rx="8.5" width="51"/><path d="m8.59565 18.512c.04783-.4224.07175-1.0083.07175-1.7576 0-1.4269-.0558-3.045-.1674-4.8545 1.5544.0478 4.2248.0717 8.0111.0717 3.7704 0 6.4288-.0239 7.9752-.0717-.1116 1.8095-.1674 3.4276-.1674 4.8545 0 .7493.0239 1.3352.0718 1.7576h-.562c-.5341-2.1442-1.2276-3.6867-2.0805-4.6273-.8449-.9485-1.7577-1.4228-2.7381-1.4228h-.0239v14.0134c0 .6855.0677 1.1837.2032 1.4946.1435.3109.3986.5182.7653.6218s.9486.1554 1.7457.1554v.4903c-2.2957-.0479-4.0853-.0718-5.3687-.0718-1.1558 0-2.8337.0239-5.0338.0718v-.4903c.7971 0 1.379-.0518 1.7457-.1554s.6178-.3109.7533-.6218c.1435-.3109.2152-.8091.2152-1.4946v-14.0134h-.0239c-.9964 0-1.9171.4703-2.762 1.4109-.837.9326-1.52653 2.479-2.06857 4.6392z" fill="#fff"/><path d="m24.9209 26.6746c.0478-.4224.0717-1.0083.0717-1.7576 0-1.4269-.0558-3.045-.1674-4.8545 1.5544.0478 4.2248.0717 8.0111.0717 3.7704 0 6.4288-.0239 7.9752-.0717-.1116 1.8095-.1674 3.4276-.1674 4.8545 0 .7493.0239 1.3352.0718 1.7576h-.562c-.5341-2.1442-1.2276-3.6867-2.0805-4.6273-.845-.9485-1.7577-1.4228-2.7381-1.4228h-.0239v14.0134c0 .6855.0677 1.1837.2032 1.4946.1435.3109.3986.5182.7653.6218.3666.1036.9485.1554 1.7457.1554v.4903c-2.2957-.0479-4.0853-.0718-5.3687-.0718-1.1558 0-2.8337.0239-5.0338.0718v-.4903c.7971 0 1.379-.0518 1.7457-.1554s.6178-.3109.7533-.6218c.1435-.3109.2152-.8091.2152-1.4946v-14.0134h-.0239c-.9964 0-1.9171.4703-2.762 1.4109-.837.9326-1.5265 2.479-2.0686 4.6392z" fill="#fff"/><path d="m78.52 17.84c-.0533.6133-.0933 1.2133-.12 1.8-.0133.5733-.02 1.0133-.02 1.32s.0067.5933.02.86.0267.5.04.7h-.46c-.1867-1.0667-.4133-1.9-.68-2.5-.2667-.6133-.62-1.0533-1.06-1.32-.4267-.2667-.9933-.4-1.7-.4h-.64v11.4c0 .5467.0467.9533.14 1.22.1067.2667.3133.4467.62.54.3067.08.7533.1267 1.34.14v.4c-.4-.0267-.92-.04-1.56-.04-.64-.0133-1.2933-.02-1.96-.02-.6933 0-1.3467.0067-1.96.02-.6 0-1.0867.0133-1.46.04v-.4c.5733-.0133 1.0133-.06 1.32-.14.3067-.0933.5133-.2733.62-.54s.16-.6733.16-1.22v-11.4h-.66c-.6933 0-1.26.1333-1.7.4s-.7933.7067-1.06 1.32c-.2667.6-.4867 1.4333-.66 2.5h-.46c.0267-.2.04-.4333.04-.7.0133-.2667.02-.5533.02-.86s-.0133-.7467-.04-1.32c-.0133-.5867-.0467-1.1867-.1-1.8.5867.0133 1.2333.0267 1.94.04s1.4133.02 2.12.02h1.94 1.92c.7067 0 1.4133-.0067 2.12-.02s1.3533-.0267 1.94-.04zm5.287 3.54c.92 0 1.7334.1867 2.44.56.72.36 1.2867.94 1.7 1.74.4267.8.64 1.8533.64 3.16s-.2133 2.36-.64 3.16c-.4133.8-.98 1.38-1.7 1.74-.7066.36-1.52.54-2.44.54s-1.74-.18-2.46-.54-1.2866-.94-1.7-1.74c-.4133-.8-.62-1.8533-.62-3.16s.2067-2.36.62-3.16c.4134-.8.98-1.38 1.7-1.74.72-.3733 1.54-.56 2.46-.56zm0 .4c-.6266 0-1.14.4-1.54 1.2-.3866.7867-.58 2.0733-.58 3.86s.1934 3.0733.58 3.86c.4.7867.9134 1.18 1.54 1.18.6134 0 1.12-.3933 1.52-1.18s.6-2.0733.6-3.86-.2-3.0733-.6-3.86c-.4-.8-.9066-1.2-1.52-1.2zm13.1319-.4c.52 0 .9533.0733 1.3.22.36.1467.64.3333.84.56.24.2533.4067.5933.5 1.02.0933.4133.14.94.14 1.58v5.38c0 .56.0933.94.28 1.14.2001.2.5331.3 1.0001.3v.42c-.24-.0133-.6-.0267-1.0801-.04-.48-.0267-.9467-.04-1.4-.04-.48 0-.9467.0133-1.4.04-.44.0133-.7733.0267-1 .04v-.42c.3867 0 .66-.1.82-.3.1733-.2.26-.58.26-1.14v-6.06c0-.36-.0267-.68-.08-.96-.0533-.2933-.1667-.52-.34-.68-.1733-.1733-.44-.26-.8-.26-.4133 0-.7867.12-1.12.36s-.6.5733-.8 1c-.1867.4133-.28.88-.28 1.4v5.2c0 .56.08.94.24 1.14s.44.3.84.3v.42c-.2267-.0133-.56-.0267-1-.04-.4267-.0267-.8667-.04-1.32-.04-.4933 0-.9933.0133-1.5.04-.5067.0133-.8867.0267-1.14.04v-.42c.4933 0 .84-.1 1.04-.3.2133-.2.32-.58.32-1.14v-6.3c0-.6-.1-1.04-.3-1.32-.1867-.2933-.54-.44-1.06-.44v-.42c.4267.04.84.06 1.24.06.4933 0 .96-.02 1.4-.06.4533-.0533.8667-.1267 1.24-.22v2c.3333-.7333.78-1.26 1.34-1.58s1.1667-.48 1.82-.48zm6.0201 0c.52 0 .953.0733 1.3.22.36.1467.64.3333.84.56.24.2533.407.5933.5 1.02.093.4133.14.94.14 1.58v5.38c0 .56.1.94.3 1.14.213.2.567.3 1.06.3v.42c-.24-.0133-.613-.0267-1.12-.04-.493-.0267-.973-.04-1.44-.04-.48 0-.947.0133-1.4.04-.44.0133-.773.0267-1 .04v-.42c.387 0 .66-.1.82-.3.173-.2.26-.58.26-1.14v-6.06c0-.36-.033-.68-.1-.96-.053-.2933-.173-.52-.36-.68-.187-.1733-.467-.26-.84-.26-.413 0-.787.1267-1.12.38s-.6.5933-.8001 1.02c-.1867.4133-.2867.88-.3 1.4l-.1-1.44c.36-.8267.8401-1.3933 1.4401-1.7s1.24-.46 1.92-.46zm21.225-3.54c-.053.6133-.093 1.2133-.12 1.8-.013.5733-.02 1.0133-.02 1.32s.007.5933.02.86.027.5.04.7h-.46c-.187-1.0667-.413-1.9-.68-2.5-.267-.6133-.62-1.0533-1.06-1.32-.427-.2667-.993-.4-1.7-.4h-.64v11.4c0 .5467.047.9533.14 1.22.107.2667.313.4467.62.54.307.08.753.1267 1.34.14v.4c-.4-.0267-.92-.04-1.56-.04-.64-.0133-1.293-.02-1.96-.02-.693 0-1.347.0067-1.96.02-.6 0-1.087.0133-1.46.04v-.4c.573-.0133 1.013-.06 1.32-.14.307-.0933.513-.2733.62-.54s.16-.6733.16-1.22v-11.4h-.66c-.693 0-1.26.1333-1.7.4s-.793.7067-1.06 1.32c-.267.6-.487 1.4333-.66 2.5h-.46c.027-.2.04-.4333.04-.7.013-.2667.02-.5533.02-.86s-.013-.7467-.04-1.32c-.013-.5867-.047-1.1867-.1-1.8.587.0133 1.233.0267 1.94.04s1.413.02 2.12.02h1.94 1.92c.707 0 1.413-.0067 2.12-.02s1.353-.0267 1.94-.04zm7.687 3.54c.413 0 .753.0867 1.02.26.28.1733.487.3933.62.66s.2.5467.2.84c0 .44-.133.8067-.4 1.1-.253.2933-.593.44-1.02.44-.4 0-.727-.1067-.98-.32s-.38-.5067-.38-.88c0-.3333.08-.6133.24-.84.173-.2267.367-.4067.58-.54-.147-.08-.313-.1067-.5-.08-.32.0267-.613.14-.88.34s-.493.4467-.68.74-.333.6067-.44.94c-.093.3333-.14.6533-.14.96v4.94c0 .6533.167 1.0933.5 1.32.333.2133.82.32 1.46.32v.42c-.307-.0133-.753-.0267-1.34-.04-.573-.0267-1.173-.04-1.8-.04-.52 0-1.04.0133-1.56.04-.507.0133-.887.0267-1.14.04v-.42c.493 0 .84-.1 1.04-.3.213-.2.32-.58.32-1.14v-6.3c0-.6-.1-1.04-.3-1.32-.187-.2933-.54-.44-1.06-.44v-.42c.427.04.84.06 1.24.06.493 0 .96-.02 1.4-.06.453-.0533.867-.1267 1.24-.22v2.08c.16-.3733.367-.72.62-1.04.267-.32.58-.58.94-.78.373-.2133.773-.32 1.2-.32zm7.307 0c.92 0 1.733.1867 2.44.56.72.36 1.287.94 1.7 1.74.427.8.64 1.8533.64 3.16s-.213 2.36-.64 3.16c-.413.8-.98 1.38-1.7 1.74-.707.36-1.52.54-2.44.54s-1.74-.18-2.46-.54-1.287-.94-1.7-1.74-.62-1.8533-.62-3.16.207-2.36.62-3.16.98-1.38 1.7-1.74c.72-.3733 1.54-.56 2.46-.56zm0 .4c-.627 0-1.14.4-1.54 1.2-.387.7867-.58 2.0733-.58 3.86s.193 3.0733.58 3.86c.4.7867.913 1.18 1.54 1.18.613 0 1.12-.3933 1.52-1.18s.6-2.0733.6-3.86-.2-3.0733-.6-3.86c-.4-.8-.907-1.2-1.52-1.2zm11.212-.4c.493 0 .947.06 1.36.18.427.1067.793.26 1.1.46.32.2.573.4533.76.76.187.2933.28.62.28.98 0 .44-.133.7933-.4 1.06s-.6.4-1 .4c-.413 0-.753-.12-1.02-.36-.253-.24-.38-.56-.38-.96 0-.3867.113-.7067.34-.96s.5-.42.82-.5c-.12-.1733-.307-.3133-.56-.42-.253-.12-.533-.18-.84-.18-.4 0-.76.1067-1.08.32-.32.2-.6.5067-.84.92-.227.4-.407.9-.54 1.5-.12.5867-.18 1.2667-.18 2.04 0 1.08.127 1.9333.38 2.56.267.6267.607 1.0733 1.02 1.34.413.2533.853.38 1.32.38.28 0 .58-.0533.9-.16s.633-.2867.94-.54c.32-.2533.607-.6133.86-1.08l.38.14c-.147.4667-.387.9333-.72 1.4-.32.4667-.74.8533-1.26 1.16s-1.153.46-1.9.46c-.853 0-1.627-.1933-2.32-.58-.693-.4-1.247-1-1.66-1.8-.4-.8-.6-1.7933-.6-2.98 0-1.1733.207-2.1667.62-2.98.413-.8267.987-1.46 1.72-1.9.747-.44 1.58-.66 2.5-.66z" fill="#00ac66"/></svg>